# xmcd
#
# Track frame offsets: 
#        150
#        19745
#        34997
#        55886
#        72656
#        94756
#        113503
#        130597
#        146279
#        165923
#        183669
#
# Disc length: 2742 seconds
#
# Revision: 3
# Processed by: cddbd v1.5.2PL0 Copyright (c) Steve Scherf et al.
# Submitted via: ExactAudioCopy v1.0b3
#
DISCID=8f0ab40b
DTITLE=萧萧 (Xiao Xiao) - I'm萧萧
DYEAR=2006
DGENRE=Taiwan
TTITLE0=忽略 Ignore
TTITLE1=握不住的他 The taste of love
TTITLE2=想忘了 Forgetting
TTITLE3=放了 All things must pass
TTITLE4=Clumsy
TTITLE5=对不起我爱你 Sorry, I just love u so
TTITLE6=Daddy's little girl
TTITLE7=月儿弯弯 Moon
TTITLE8=笨鸟 Song Bird
TTITLE9=你在里面 You’re here
TTITLE10=只能靠想像 Imaginge
EXTD=
EXTT0=
EXTT1=
EXTT2=
EXTT3=
EXTT4=
EXTT5=
EXTT6=
EXTT7=
EXTT8=
EXTT9=
EXTT10=
PLAYORDER=
